<?xml version="1.0" standalone="no"?>
<!DOCTYPE svg PUBLIC "-//W3C//DTD SVG 20010904//EN"
 "http://www.w3.org/TR/2001/REC-SVG-20010904/DTD/svg10.dtd">
<svg version="1.0" xmlns="http://www.w3.org/2000/svg"
 width="300.000000pt" height="300.000000pt" viewBox="0 0 300.000000 300.000000"
 preserveAspectRatio="xMidYMid meet">
<metadata>
Created by potrace 1.10, written by Peter Selinger 2001-2011
</metadata>
<g transform="translate(0.000000,300.000000) scale(0.100000,-0.100000)"
fill="#000000" stroke="none">
<path d="M1395 2429 c-202 -21 -407 -120 -555 -269 -251 -250 -337 -609 -228
-950 111 -348 426 -601 792 -639 513 -52 972 322 1025 836 45 437 -232 854
-656 987 -65 20 -263 51 -292 45 -3 -1 -42 -5 -86 -10z m325 -40 c377 -93 647
-406 690 -799 43 -387 -173 -759 -534 -925 -119 -55 -232 -78 -376 -79 -149 0
-259 24 -386 83 -105 50 -162 89 -248 170 -127 122 -215 275 -258 447 -30 123
-30 324 1 439 44 165 135 318 257 436 86 81 143 120 247 169 190 89 401 109
607 59z"/>
<path d="M1155 1755 l-25 -24 0 -229 c0 -217 1 -231 21 -256 l20 -26 329 0
329 0 20 26 c20 25 21 39 21 256 l0 229 -25 24 -24 25 -321 0 -321 0 -24 -25z
m679 -11 c24 -23 24 -465 0 -488 -13 -14 -58 -16 -334 -16 -276 0 -321 2 -334
16 -24 23 -24 465 0 488 13 14 58 16 334 16 276 0 321 -2 334 -16z"/>
<path d="M1208 1502 c-2 -112 -1 -206 1 -208 6 -5 576 -5 582 0 2 2 3 96 1
208 l-3 203 -289 0 -289 0 -3 -203z m570 61 c1 -68 -1 -123 -6 -123 -4 0 -27
20 -51 44 l-44 45 -65 -58 -64 -59 -76 79 -75 79 -86 -82 -86 -83 -3 129 c-1
72 0 136 2 143 4 11 60 13 278 11 l273 -3 3 -122z m-287 -210 l-46 -42 -112
-1 -113 0 0 32 c0 28 14 47 88 121 l87 88 71 -77 71 -78 -46 -43z m289 5 l0
-48 -152 0 -153 0 100 100 99 100 53 -52 c49 -49 53 -56 53 -100z"/>
<path d="M1505 1625 c-31 -30 -32 -56 -2 -91 46 -53 127 -24 127 45 0 35 -38
71 -74 71 -15 0 -37 -10 -51 -25z m91 -10 c18 -19 23 -31 19 -48 -9 -27 -33
-47 -59 -47 -52 0 -76 75 -34 104 31 22 45 20 74 -9z"/>
</g>
</svg>
